<svg width="160" height="36" viewBox="0 0 160 36" fill="none" xmlns="http://www.w3.org/2000/svg" role="img" aria-label="S'investir">
  <rect x="0" y="2" width="32" height="32" rx="9" fill="#C9A84C" />
  <path d="M21.5 12.2c-1-1-2.5-1.6-4.2-1.6-2.9 0-4.9 1.5-4.9 3.8 0 2.2 1.7 3 4.1 3.5 1.7.4 2.4.8 2.4 1.6 0 .8-.8 1.3-2 1.3-1.4 0-2.6-.6-3.4-1.5l-1.9 2c1.2 1.3 3 2.1 5.2 2.1 3.1 0 5.2-1.6 5.2-4 0-2.4-1.9-3.2-4.3-3.7-1.6-.3-2.2-.7-2.2-1.4 0-.7.7-1.1 1.8-1.1 1.2 0 2.2.5 2.9 1.3l1.3-1.8z" fill="#0A0F1E" />
  <text x="42" y="25" font-family="'Plus Jakarta Sans', system-ui, sans-serif" font-size="20" font-weight="800" fill="#FFFFFF">S<tspan fill="#C9A84C">&apos;</tspan>investir</text>
</svg>
